:FULLY-SPECIFIED
:FORCE-ALL-JOINTS-BE-3DOF
:DEGREES
1053
root 1.20617 15.1597 32.5522 4.89494 -3.39784 363.449
lfemur 8.79327 0.463879 5.67416
ltibia 2.96852e-14 0 0
lfoot -30.3852 -11.19 0
ltoes -34.2358 0 0
rfemur -31.053 -15.6714 -6.30562
rtibia 50.013 0 0
rfoot -21.8618 5.42647 0
rtoes -40.9492 0 0
lowerback -1.82878 -0.0539401 -0.243763
upperback -0.481844 -0.0341155 -6.04213
thorax 0.527439 -0.0186501 -6.12625
lowerneck -7.01381 0.738854 6.54293
upperneck 1.28762 0.299541 3.67482
head 1.59568 0.276533 0.0583712
lclavicle -1.78907e-15 4.24074e-14 0
lhumerus -58.7099 -46.8785 115.407
lradius 55.8098 0 0
lwrist 25.5489 0 0
lhand 37.4312 25.3084 0
lfingers 7.12502 0 0
lthumb 60.2338 38.8409 0
rclavicle -1.78907e-15 4.24074e-14 0
rhumerus 2.1343 -23.529 0.624759
rradius 27.485 0 0
rwrist -9.71805 0 0
rhand -30.524 -42.0361 0
rfingers 7.12502 0 0
rthumb -3.82352 -791.982 0
1054
root 1.20774 15.1601 32.5566 4.89472 -3.38429 363.434
lfemur 8.80617 0.452508 5.68267
ltibia 3.26007e-14 0 0
lfoot -30.3961 -11.172 0
ltoes -34.257 0 0
rfemur -31.0141 -15.6517 -6.30467
rtibia 49.9954 0 0
rfoot -21.8565 5.40695 0
rtoes -40.9352 0 0
lowerback -1.84308 -0.0541347 -0.248718
upperback -0.479762 -0.0336436 -6.03594
thorax 0.537678 -0.0182416 -6.11687
lowerneck -7.03137 0.725412 6.52804
upperneck 1.3088 0.279768 3.68995
head 1.60534 0.267906 0.0649892
lclavicle 1.9878e-16 3.97569e-14 0
lhumerus -58.7082 -46.899 115.416
lradius 55.8122 0 0
lwrist 25.565 0 0
lhand 37.4417 25.3026 0
lfingers 7.12502 0 0
lthumb 60.2428 38.8254 0
rclavicle 1.9878e-16 3.97569e-14 0
rhumerus 2.10403 -23.5138 0.639532
rradius 27.4832 0 0
rwrist -9.69268 0 0
rhand -30.5237 -42.011 0
rfingers 7.12502 0 0
rthumb -3.82325 -791.957 0
1055
root 1.20932 15.1606 32.5611 4.8945 -3.37074 363.419
lfemur 8.81906 0.441138 5.69117
ltibia 3.55162e-14 0 0
lfoot -30.4071 -11.154 0
ltoes -34.2783 0 0
rfemur -30.9751 -15.6321 -6.30373
rtibia 49.9777 0 0
rfoot -21.8512 5.38742 0
rtoes -40.9212 0 0
lowerback -1.85738 -0.0543293 -0.253673
upperback -0.477681 -0.0331718 -6.02975
thorax 0.547916 -0.0178331 -6.10748
lowerneck -7.04893 0.71197 6.51315
upperneck 1.32999 0.259994 3.70508
head 1.615 0.259278 0.0716073
lclavicle 2.18663e-15 3.71064e-14 0
lhumerus -58.7065 -46.9195 115.424
lradius 55.8145 0 0
lwrist 25.5812 0 0
lhand 37.4523 25.2968 0
lfingers 7.12502 0 0
lthumb 60.2517 38.8099 0
rclavicle 2.18663e-15 3.71064e-14 0
rhumerus 2.07376 -23.4987 0.654305
rradius 27.4814 0 0
rwrist -9.6673 0 0
rhand -30.5235 -41.9859 0
rfingers 7.12502 0 0
rthumb -3.82297 -791.931 0
1056
root 1.2109 15.1611 32.5656 4.89427 -3.35719 363.405
lfemur 8.83196 0.429767 5.69968
ltibia 3.84317e-14 0 0
lfoot -30.4181 -11.136 0
ltoes -34.2996 0 0
rfemur -30.9361 -15.6125 -6.30278
rtibia 49.96 0 0
rfoot -21.8459 5.36789 0
rtoes -40.9072 0 0
lowerback -1.87169 -0.0545238 -0.258627
upperback -0.4756 -0.0326999 -6.02356
thorax 0.558155 -0.0174245 -6.0981
lowerneck -7.06648 0.698529 6.49827
upperneck 1.35117 0.240221 3.72021
head 1.62466 0.25065 0.0782254
lclavicle 4.17447e-15 3.4456e-14 0
lhumerus -58.7047 -46.94 115.432
lradius 55.8169 0 0
lwrist 25.5973 0 0
lhand 37.4628 25.2909 0
lfingers 7.12502 0 0
lthumb 60.2607 38.7945 0
rclavicle 4.17447e-15 3.4456e-14 0
rhumerus 2.04349 -23.4835 0.669077
rradius 27.4797 0 0
rwrist -9.64192 0 0
rhand -30.5232 -41.9609 0
rfingers 7.12502 0 0
rthumb -3.8227 -791.906 0
